<svg id="Layer_1" data-name="Layer 1" xmlns="http://www.w3.org/2000/svg" viewBox="0 0 960 280"><defs><style>.cls-1{fill:#ff232b;}</style></defs><title>applyto</title><path class="cls-1" d="M855.44,70A64.56,64.56,0,1,0,920,134.56,64.63,64.63,0,0,0,855.44,70Zm8.78,110-13.33-40-40-13.33,80-26.67Z"/><path class="cls-1" d="M389.78,80.12a59.88,59.88,0,0,0-30.51,6.16A10,10,0,0,0,350,80H320V240h40V194.09a60,60,0,1,0,29.78-114ZM381,162a22,22,0,1,1,22-22A22,22,0,0,1,381,162ZM126.73,86.28A60,60,0,1,0,126,194.09h0a5.92,5.92,0,0,0,5.91,5.91H166V80H136A10,10,0,0,0,126.73,86.28ZM103.17,162a22,22,0,1,1,22-22A22,22,0,0,1,103.17,162ZM253.78,80.12a59.88,59.88,0,0,0-30.51,6.16A10,10,0,0,0,214,80H184V240h40V194.09a60,60,0,1,0,29.78-114ZM245,162a22,22,0,1,1,22-22A22,22,0,0,1,245,162ZM745.32,79.94H770v40H745.32V150a10,10,0,0,0,10,10h10v40H740a34.64,34.64,0,0,1-34.64-34.64V119.94H690v-40h15.32V40h30a10,10,0,0,1,10,10ZM500,50V200H460V40h30A10,10,0,0,1,500,50Zm90,30h40L579.73,214a40,40,0,0,1-37.45,26H530V200h1.13a20,20,0,0,0,18.73-13l.13-.35L510,80h40l20,53.33Z"/></svg>